<svg xmlns="http://www.w3.org/2000/svg" viewBox="0 0 64 64" role="img" aria-label="Lærerportal ikon">
  <rect width="64" height="64" rx="14" fill="#F4F7FB"/>
  <circle cx="32" cy="32" r="18" fill="#5E6AD2"/>
  <circle cx="32" cy="32" r="8" fill="#F4F7FB"/>
  <rect x="29.5" y="7" width="5" height="10" rx="2.5" fill="#5E6AD2"/>
  <rect x="29.5" y="47" width="5" height="10" rx="2.5" fill="#5E6AD2"/>
  <rect x="47" y="29.5" width="10" height="5" rx="2.5" fill="#5E6AD2"/>
  <rect x="7" y="29.5" width="10" height="5" rx="2.5" fill="#5E6AD2"/>
  <rect x="44.5" y="13.5" width="5" height="10" rx="2.5" transform="rotate(45 47 18.5)" fill="#5E6AD2"/>
  <rect x="14.5" y="43.5" width="5" height="10" rx="2.5" transform="rotate(45 17 48.5)" fill="#5E6AD2"/>
  <rect x="44.5" y="40.5" width="5" height="10" rx="2.5" transform="rotate(-45 47 45.5)" fill="#5E6AD2"/>
  <rect x="14.5" y="10.5" width="5" height="10" rx="2.5" transform="rotate(-45 17 15.5)" fill="#5E6AD2"/>
  <path d="M24 35.5l5.5-5.5 10 10" stroke="#FFB74D" stroke-width="4" stroke-linecap="round" stroke-linejoin="round"/>
  <path d="M38 26l3-3a3.5 3.5 0 0 1 5 5l-3 3" stroke="#FFB74D" stroke-width="4" stroke-linecap="round" stroke-linejoin="round" fill="none"/>
</svg>
